<svg xmlns="http://www.w3.org/2000/svg" width="1600" height="1100" viewBox="0 0 1600 1100">
  <defs>
    <linearGradient id="paper" x1="0" y1="0" x2="1" y2="1">
      <stop offset="0" stop-color="#f8f0dc"/>
      <stop offset="0.48" stop-color="#efe0bd"/>
      <stop offset="1" stop-color="#d9ecd8"/>
    </linearGradient>
    <linearGradient id="ink" x1="0" y1="0" x2="1" y2="1">
      <stop offset="0" stop-color="#243c2d"/>
      <stop offset="0.52" stop-color="#5a7140"/>
      <stop offset="1" stop-color="#b96d3d"/>
    </linearGradient>
    <radialGradient id="warm" cx="50%" cy="38%" r="64%">
      <stop offset="0" stop-color="#fff7d6" stop-opacity="0.9"/>
      <stop offset="0.52" stop-color="#d9c27a" stop-opacity="0.18"/>
      <stop offset="1" stop-color="#d9c27a" stop-opacity="0"/>
    </radialGradient>
    <filter id="soft">
      <feGaussianBlur stdDeviation="12"/>
    </filter>
    <filter id="grain">
      <feTurbulence type="fractalNoise" baseFrequency="0.78" numOctaves="4" seed="19"/>
      <feColorMatrix type="saturate" values="0"/>
      <feComponentTransfer>
        <feFuncA type="table" tableValues="0 0.12"/>
      </feComponentTransfer>
      <feBlend mode="multiply" in2="SourceGraphic"/>
    </filter>
    <pattern id="grid" width="54" height="54" patternUnits="userSpaceOnUse">
      <path d="M54 0H0V54" fill="none" stroke="#274235" stroke-opacity="0.09" stroke-width="1"/>
    </pattern>
  </defs>
  <rect width="1600" height="1100" rx="64" fill="url(#paper)"/>
  <rect width="1600" height="1100" rx="64" fill="url(#grid)" opacity="0.7"/>
  <rect width="1600" height="1100" rx="64" fill="url(#warm)"/>
  <g opacity="0.55" filter="url(#soft)">
    <path d="M180 790C370 640 522 662 710 724C894 784 1026 742 1216 568C1324 470 1422 426 1502 438" fill="none" stroke="#2f614a" stroke-width="36" stroke-linecap="round"/>
    <path d="M90 324C294 404 432 374 604 252C746 150 896 112 1074 194C1192 248 1284 246 1470 154" fill="none" stroke="#c27a48" stroke-width="20" stroke-linecap="round" opacity="0.42"/>
  </g>
  <g fill="none" stroke="#233b2d" stroke-width="2" opacity="0.28">
    <path d="M188 902C334 802 450 776 590 822C698 858 786 850 900 788C996 736 1080 716 1182 750"/>
    <path d="M256 848C388 746 510 728 646 786C738 826 834 812 942 742C1020 692 1124 660 1268 704"/>
    <path d="M326 782C444 690 566 680 690 736C780 776 872 760 968 696C1056 638 1144 624 1274 662"/>
  </g>
  <g opacity="0.86">
    <path d="M1090 802C1086 676 1134 568 1246 486" stroke="#315a3d" stroke-width="10" stroke-linecap="round" fill="none"/>
    <path d="M1102 710C1184 680 1242 706 1286 784C1204 810 1140 790 1102 710Z" fill="#6f8b54"/>
    <path d="M1184 570C1244 540 1306 558 1352 624C1286 666 1226 646 1184 570Z" fill="#89a766"/>
    <path d="M1235 490C1298 448 1364 458 1420 522C1356 574 1290 564 1235 490Z" fill="#486c45"/>
  </g>
  <g opacity="0.84">
    <path d="M444 790C470 666 552 568 676 510" stroke="#2d513b" stroke-width="9" stroke-linecap="round" fill="none"/>
    <path d="M476 682C546 636 614 640 676 696C610 754 536 748 476 682Z" fill="#759d67"/>
    <path d="M564 552C632 512 706 524 760 590C690 638 622 626 564 552Z" fill="#4c744d"/>
  </g>
  <g transform="translate(188 176)">
    <text x="0" y="0" fill="#26382b" font-size="38" font-family="Georgia, 'Times New Roman', serif" letter-spacing="10">XIAOXIAODONG.AI</text>
    <text x="0" y="170" fill="url(#ink)" font-size="188" font-weight="700" font-family="'Songti SC', 'STSong', serif" letter-spacing="8">小小东</text>
    <text x="8" y="232" fill="#4d5842" font-size="34" font-family="'PingFang SC', sans-serif" letter-spacing="6">审美 + 效率社群</text>
  </g>
  <g transform="translate(196 526)" fill="#26382b" font-family="'PingFang SC', sans-serif">
    <text x="0" y="0" font-size="28" opacity="0.82">1000+ PLANTS</text>
    <text x="0" y="58" font-size="28" opacity="0.82">PROMPT STYLE SYSTEM</text>
    <text x="0" y="116" font-size="28" opacity="0.82">TOOLS / WORKFLOW / TASTE</text>
  </g>
  <g fill="#26382b" opacity="0.72" font-family="'PingFang SC', sans-serif">
    <text x="1100" y="188" font-size="22" letter-spacing="4">BRAVE</text>
    <text x="1100" y="226" font-size="18" letter-spacing="2">make version 1.0</text>
    <text x="1100" y="256" font-size="18" letter-spacing="2">then polish with taste</text>
  </g>
  <g filter="url(#grain)" opacity="0.7">
    <rect width="1600" height="1100" rx="64" fill="transparent"/>
  </g>
</svg>
